<svg xmlns="http://www.w3.org/2000/svg" viewBox="0 0 269.4627 270.94775" height="289.011" width="287.427">
  <defs>
  <filter id="filter" height="2" width="2">
    <feTurbulence baseFrequency="7" numOctaves="10" type="fractalNoise" />
    <feDisplacementMap  scale="4"  xChannelSelector="R" in="SourceGraphic" />
    
  </filter>
  </defs>
<g style="filter:url(#filter)" fill="none" stroke="#fff" stroke-miterlimit="7.5">
<g transform="translate(-120.635 -396.887)">
<path  d="M243.928 397.479l-7.506.789-6.93 17.336-.836 11.662 1.123 4.595-14.695 4.776-1.793-4.38-7.531-8.94-15.795-9.954-6.537 3.774.72 18.656 3.979 10.992 2.896 3.744-11.482 10.338-3.42-3.27-10.517-5.107-18.479-2.666-4.436 6.106 8.247 16.75 8.107 8.424 4.166 2.242-6.283 14.113-4.455-1.596-11.684-.386-17.967 5.078-1.568 7.383 14.346 11.947 10.832 4.398 4.718.354v15.45l-4.718.354-10.832 4.399-14.346 11.947 1.568 7.383 17.967 5.078 11.684-.387 4.455-1.597 6.283 14.115-4.166 2.242-8.107 8.424-8.247 16.75 4.436 6.105 18.479-2.666 10.517-5.107 3.42-3.27 11.482 10.338-2.896 3.744-3.979 10.993-.72 18.656 6.537 3.773 15.795-9.953 7.531-8.941 1.793-4.38 14.695 4.774-1.123 4.598.836 11.66 6.93 17.336 7.506.79 10.383-15.516 3.242-11.233-.143-4.73 15.367-1.614.844 4.655 5.508 10.312 13.38 13.02 7.178-2.332 3.174-18.399-1.607-11.58-2.053-4.262 13.381-7.726 2.664 3.91 9.227 7.182 17.52 6.45 5.609-5.05-4.584-18.098-6.178-9.925-3.611-3.061 9.082-12.498 4.025 2.486 11.348 2.809 18.628-1.233 3.07-6.894-11.548-14.67-9.68-6.555-4.543-1.326 3.213-15.113 4.69.637 11.51-2.051 16.515-8.703v-7.55l-16.516-8.702-11.51-2.051-4.689.637-3.213-15.114 4.543-1.326 9.68-6.554 11.549-14.67-3.07-6.895-18.63-1.232-11.347 2.806-4.025 2.489-9.082-12.5 3.61-3.059 6.179-9.926 4.584-18.097-5.61-5.051-17.52 6.451-9.226 7.182-2.664 3.91-13.38-7.727 2.052-4.262 1.607-11.58-3.173-18.398-7.178-2.332-13.381 13.018-5.508 10.314-.844 4.654-15.367-1.615.143-4.728-3.242-11.233-10.383-15.517zm11.441 67.896a66.988 66.988 0 0 1 6.465.322l-9.389 31.139a35.664 35.664 0 0 0-25.142 13.588l-31.108-9.38a66.988 66.988 0 0 1 59.174-35.669zm31.24 7.78a66.988 66.988 0 0 1 35.748 59.206 66.988 66.988 0 0 1-.33 6.625l-31.109-9.38a35.664 35.664 0 0 0-13.682-25.366l9.373-31.086zm-97.902 52.656l31.125 9.386a35.664 35.664 0 0 0 13.467 25.13l-9.389 31.14a66.988 66.988 0 0 1-35.53-59.106 66.988 66.988 0 0 1 .327-6.55zm94.682 28.548l31.12 9.385a66.988 66.988 0 0 1-59.14 35.606 66.988 66.988 0 0 1-6.709-.338l9.375-31.094a35.664 35.664 0 0 0 25.354-13.559z" stroke-width="1.118"/><circle r="20.396" cy="532.361" cx="255.37" stroke-width=".971"/></g><g transform="translate(-120.635 -396.887)"><path d="M243.928 397.479l-7.506.789-6.93 17.336-.836 11.662 1.123 4.595-14.695 4.776-1.793-4.38-7.531-8.94-15.795-9.954-6.537 3.774.72 18.656 3.979 10.992 2.896 3.744-11.482 10.338-3.42-3.27-10.517-5.107-18.479-2.666-4.436 6.106 8.247 16.75 8.107 8.424 4.166 2.242-6.283 14.113-4.455-1.596-11.684-.386-17.967 5.078-1.568 7.383 14.346 11.947 10.832 4.398 4.718.354v15.45l-4.718.354-10.832 4.399-14.346 11.947 1.568 7.383 17.967 5.078 11.684-.387 4.455-1.597 6.283 14.115-4.166 2.242-8.107 8.424-8.247 16.75 4.436 6.105 18.479-2.666 10.517-5.107 3.42-3.27 11.482 10.338-2.896 3.744-3.979 10.993-.72 18.656 6.537 3.773 15.795-9.953 7.531-8.941 1.793-4.38 14.695 4.774-1.123 4.598.836 11.66 6.93 17.336 7.506.79 10.383-15.516 3.242-11.233-.143-4.73 15.367-1.614.844 4.655 5.508 10.312 13.38 13.02 7.178-2.332 3.174-18.399-1.607-11.58-2.053-4.262 13.381-7.726 2.664 3.91 9.227 7.182 17.52 6.45 5.609-5.05-4.584-18.098-6.178-9.925-3.611-3.061 9.082-12.498 4.025 2.486 11.348 2.809 18.628-1.233 3.07-6.894-11.548-14.67-9.68-6.555-4.543-1.326 3.213-15.113 4.69.637 11.51-2.051 16.515-8.703v-7.55l-16.516-8.702-11.51-2.051-4.689.637-3.213-15.114 4.543-1.326 9.68-6.554 11.549-14.67-3.07-6.895-18.63-1.232-11.347 2.806-4.025 2.489-9.082-12.5 3.61-3.059 6.179-9.926 4.584-18.097-5.61-5.051-17.52 6.451-9.226 7.182-2.664 3.91-13.38-7.727 2.052-4.262 1.607-11.58-3.173-18.398-7.178-2.332-13.381 13.018-5.508 10.314-.844 4.654-15.367-1.615.143-4.728-3.242-11.233-10.383-15.517zm11.441 67.896a66.988 66.988 0 0 1 6.465.322l-9.389 31.139a35.664 35.664 0 0 0-25.142 13.588l-31.108-9.38a66.988 66.988 0 0 1 59.174-35.669zm31.24 7.78a66.988 66.988 0 0 1 35.748 59.206 66.988 66.988 0 0 1-.33 6.625l-31.109-9.38a35.664 35.664 0 0 0-13.682-25.366l9.373-31.086zm-97.902 52.656l31.125 9.386a35.664 35.664 0 0 0 13.467 25.13l-9.389 31.14a66.988 66.988 0 0 1-35.53-59.106 66.988 66.988 0 0 1 .327-6.55zm94.682 28.548l31.12 9.385a66.988 66.988 0 0 1-59.14 35.606 66.988 66.988 0 0 1-6.709-.338l9.375-31.094a35.664 35.664 0 0 0 25.354-13.559z" stroke-width="2.5"/>
<circle cx="255.37" cy="532.361" r="20.396" stroke-width="2.5"/>
</g>
</g>
</svg>