<svg xmlns="http://www.w3.org/2000/svg" viewBox="0 0 269.4627 270.94775" height="289.011" width="287.427">
  <g style="filter:url(#filter)" stroke="#fff">
  <path d="M63.201-270.226l8.454-1.485 4.263.34 13.433 6.388v7.14l-13.433 6.39-4.263.338-8.454-1.485-4.4 13.542 7.713 3.767 3.25 2.78 7.111 13.064-4.197 5.777-14.622-2.727-3.649-2.231-5.966-6.17-11.519 8.368 4.025 7.581.995 4.16-1.925 14.749-6.792 2.207L23-198.535l-1.64-3.95-1.2-8.498H5.921l-1.2 8.499-1.64 3.95-10.227 10.8-6.791-2.206-1.925-14.75.995-4.159 4.025-7.58-11.52-8.37-5.966 6.17-3.648 2.232-14.622 2.727-4.198-5.777 7.113-13.064 3.25-2.78 7.711-3.767-4.4-13.542-8.453 1.485-4.263-.339-13.433-6.388v-7.141l13.433-6.389 4.263-.339 8.454 1.485 4.4-13.541-7.713-3.767-3.25-2.78-7.112-13.064 4.198-5.778 14.622 2.727 3.648 2.232 5.967 6.17 11.519-8.369-4.025-7.58-.995-4.16 1.925-14.75 6.791-2.206 10.227 10.801 1.64 3.95 1.2 8.499h14.238l1.2-8.5 1.64-3.949 10.226-10.801 6.792 2.207 1.925 14.75-.995 4.158-4.025 7.581 11.52 8.37 5.965-6.171 3.649-2.232 14.622-2.727 4.197 5.778-7.112 13.063-3.25 2.78-7.712 3.768zM208.942 122.4l13.143-2.282 5.907.418 20.137 9.329v11.22l-20.137 9.328-5.907.419-13.143-2.283-6.69 20.59 11.975 5.878 4.533 3.81 10.808 19.384-6.595 9.077-21.774-4.29-5.025-3.133-9.291-9.572-17.515 12.725 6.233 11.794 1.427 5.748-2.65 22.034-10.67 3.467-15.094-16.269-2.224-5.489-1.89-13.205h-21.65l-1.89 13.205-2.223 5.489-15.095 16.269-10.67-3.467-2.65-22.034 1.428-5.748 6.232-11.794-17.515-12.725-9.29 9.572-5.026 3.133-21.774 4.29-6.595-9.077 10.808-19.383 4.533-3.811 11.975-5.878-6.69-20.59-13.143 2.283-5.907-.419-20.137-9.328v-11.22l20.137-9.329 5.907-.418 13.143 2.283 6.69-20.59-11.975-5.879-4.533-3.81-10.808-19.383 6.595-9.077 21.774 4.289 5.025 3.134 9.291 9.572L97.982 67.93 91.75 56.137l-1.428-5.747 2.65-22.034 10.67-3.467 15.095 16.268 2.223 5.49 1.89 13.204h21.65l1.89-13.205 2.224-5.489 15.094-16.268 10.67 3.467 2.65 22.034-1.427 5.747-6.233 11.794 17.515 12.726 9.291-9.572 5.025-3.134 21.774-4.29 6.595 9.078-10.808 19.383-4.533 3.81-11.975 5.879z" fill="none"/>
  <circle r="38.462" cy="135.475" cx="133.675" fill="none" stroke-width="1.4" stroke-miterlimit="7.5"/>
  <circle r="11.888" cy="135.475" cx="77.734" fill="none" stroke-width="1.4" stroke-miterlimit="7.5"/>
  <path d="M208.942 122.4l13.143-2.282 5.907.418 20.137 9.329v11.22l-20.137 9.328-5.907.419-13.143-2.283-6.69 20.59 11.975 5.878 4.533 3.81 10.808 19.384-6.595 9.077-21.774-4.29-5.025-3.133-9.291-9.572-17.515 12.725 6.233 11.794 1.427 5.748-2.65 22.034-10.67 3.467-15.094-16.269-2.224-5.489-1.89-13.205h-21.65l-1.89 13.205-2.223 5.489-15.095 16.269-10.67-3.467-2.65-22.034 1.428-5.748 6.232-11.794-17.515-12.725-9.29 9.572-5.026 3.133-21.774 4.29-6.595-9.077 10.808-19.383 4.533-3.811 11.975-5.878-6.69-20.59-13.143 2.283-5.907-.419-20.137-9.328v-11.22l20.137-9.329 5.907-.418 13.143 2.283 6.69-20.59-11.975-5.879-4.533-3.81-10.808-19.383 6.595-9.077 21.774 4.289 5.025 3.134 9.291 9.572L97.982 67.93 91.75 56.137l-1.428-5.747 2.65-22.034 10.67-3.467 15.095 16.268 2.223 5.49 1.89 13.204h21.65l1.89-13.205 2.224-5.489 15.094-16.268 10.67 3.467 2.65 22.034-1.427 5.747-6.233 11.794 17.515 12.726 9.291-9.572 5.025-3.134 21.774-4.29 6.595 9.078-10.808 19.383-4.533 3.81-11.975 5.879z" fill="none"/>
  <circle cx="77.734" cy="135.475" r="11.888" fill="none" stroke-width="1.4" stroke-miterlimit="7.5"/>
  <circle r="11.888" cy="79.475" cx="133.675" fill="none" stroke-width="1.4" stroke-miterlimit="7.5"/>
  <circle cx="189.675" cy="135.475" r="11.888" fill="none" stroke-width="1.4" stroke-miterlimit="7.5"/>
  <circle r="11.888" cy="190.118" cx="135.675" fill="none" stroke-width="1.4" stroke-miterlimit="7.5"/>
  <circle r="11.888" cy="97.713" cx="93.119" fill="none" stroke-width="1.4" stroke-miterlimit="7.5"/>
  <circle cx="175.675" cy="97.475" r="11.888" fill="none" stroke-width="1.4" stroke-miterlimit="7.5"/>
  <circle r="11.888" cy="172.3" cx="174.277" fill="none" stroke-width="1.4" stroke-miterlimit="7.5"/>
  <circle cx="94.556" cy="175.097" r="11.888" fill="none" stroke-width="1.4" stroke-miterlimit="7.5"/>
  </g>
</svg>