<svg xmlns="http://www.w3.org/2000/svg" width="110mm" height="100mm" viewBox="350 10 10 605">
<defs>
<filter id="a" height="2" width="2">
<feTurbulence baseFrequency="6.1" numOctaves="10" type="fractalNoise"/>
<feDisplacementMap scale="4.6" xChannelSelector="R" in="SourceGraphic"/>
</filter>
</defs>
<g transform="translate(4)" style="line-height:125%" filter="url(#a)" font-weight="400" font-size="180" font-family="cmmi10" letter-spacing="0" word-spacing="0" fill="#fff">
<path d="M64.645 220.19q-.528 0-.967-.616-.44-.615-.44-1.142L73.61 176.42q.352-1.055 1.495-1.055h2.109q.703 0 1.055.528.439.527.439 1.318-1.494 6.152-1.494 10.986 0 13.008 8.965 19.336 8.965 6.328 22.588 6.328 5.888 0 11.601-2.9 5.713-2.9 9.932-7.559 4.306-4.658 6.855-10.37 2.55-5.802 2.55-11.69 0-6.328-3.34-11.25-3.34-5.01-9.23-6.416l-21.972-5.801q-8.877-2.373-14.15-9.492-5.274-7.207-5.274-16.172 0-10.81 6.416-20.83 6.416-10.02 16.7-15.996 10.37-6.065 21.093-6.065 8.262 0 15.117 3.076 6.944 2.989 10.635 9.58l10.283-12.128q1.055-.528 1.23-.528h1.143q.704 0 1.143.616.44.615.44 1.23l-10.46 41.748q-.263 1.23-1.406 1.23h-2.197q-1.582 0-1.582-1.933.879-5.713.879-9.932 0-8.35-2.9-14.502-2.813-6.24-8.614-9.404-5.713-3.252-14.238-3.252-7.207 0-14.326 4.131-7.12 4.13-11.514 10.986-4.394 6.856-4.394 14.239 0 5.8 3.34 10.283 3.427 4.482 9.052 6.064l21.973 5.713q5.976 1.582 10.37 5.625 4.483 3.955 6.768 9.492 2.286 5.45 2.286 11.953 0 8.526-3.604 16.875-3.603 8.262-10.107 15.118-6.416 6.855-14.59 10.722-8.174 3.867-16.7 3.867-21.445 0-30.761-12.568l-10.02 12.041q-1.054.527-1.318.527h-1.23zM175.21 201.645q0-2.637.528-5.01l13.008-51.68H169.85q-1.846 0-1.846-2.373.703-3.955 2.373-3.955h19.951l7.207-29.356q.703-2.373 2.813-4.042 2.109-1.67 4.746-1.67 2.285 0 3.78 1.406 1.581 1.318 1.581 3.603 0 .528-.088.88 0 .263-.088.615l-7.207 28.564h18.545q1.846 0 1.846 2.373-.088.44-.352 1.494-.263 1.055-.703 1.758-.44.703-1.318.703h-19.6l-12.92 52.031q-1.318 5.098-1.318 8.79 0 7.734 5.273 7.734 7.91 0 13.975-7.383 6.152-7.47 9.404-16.348.703-1.054 1.407-1.054h2.197q.703 0 1.142.527.44.44.44 1.055 0 .351-.176.527-3.955 10.898-11.514 19.16-7.558 8.262-17.314 8.262-7.12 0-12.041-4.658-4.834-4.659-4.834-11.953z" style="line-height:125%;-inkscape-font-specification:'cmmi10, Normal';text-align:start" filter="url(#a)"/>
</g>
<g transform="translate(41.17 -57.317)" style="line-height:125%" filter="url(#a)" font-weight="400" font-size="180" font-family="cmmi10" letter-spacing="0" word-spacing="0" fill="#fff">
<path d="M246.99 405.754q0-3.34 1.406-7.031l14.59-38.76q2.373-6.592 2.373-10.81 0-5.362-3.955-5.362-7.119 0-11.777 7.383-4.57 7.295-6.768 16.347-.351 1.143-1.494 1.143h-2.11q-1.493 0-1.493-1.67v-.527q2.9-10.723 8.877-18.985 5.976-8.35 15.117-8.35 6.416 0 10.81 4.22 4.483 4.218 4.483 10.722 0 3.34-1.494 7.031l-14.59 38.672q-2.461 5.977-2.461 10.81 0 5.362 4.13 5.362 7.032 0 11.69-7.47 4.746-7.56 6.68-16.26.351-1.055 1.406-1.055h2.197q.704 0 1.143.527.44.44.44 1.055 0 .176-.176.527-2.461 10.196-8.614 18.809-6.064 8.613-15.117 8.613-6.328 0-10.81-4.306-4.483-4.395-4.483-10.635zm20.303-96.152q0-3.78 3.164-6.856t6.943-3.076q3.077 0 5.01 1.934 2.022 1.845 2.022 4.746 0 4.043-3.252 7.119-3.164 2.988-7.032 2.988-2.9 0-4.921-1.934-1.934-2.021-1.934-4.921zM308.69 415.598q0-1.055.175-1.582l13.447-53.702q1.319-5.01 1.319-8.789 0-7.734-5.274-7.734-5.625 0-8.35 6.768-2.724 6.68-5.273 16.962 0 .528-.527.88-.527.263-.967.263h-2.11q-.614 0-1.054-.615-.44-.703-.44-1.23 1.934-7.823 3.692-13.272 1.846-5.45 5.625-9.932 3.867-4.482 9.58-4.482 6.768 0 11.953 4.306 5.186 4.22 5.186 10.811 5.361-7.031 12.568-11.074t15.293-4.043q6.416 0 11.074 2.197 4.659 2.197 7.207 6.68 2.637 4.394 2.637 10.547 0 7.382-3.34 17.841-3.252 10.46-8.173 23.38-2.55 5.888-2.55 10.81 0 5.361 4.132 5.361 7.03 0 11.689-7.558 4.746-7.559 6.68-16.172.351-1.055 1.494-1.055h2.11q.702 0 1.142.44.527.439.527 1.142 0 .176-.176.527-2.46 10.196-8.613 18.809-6.064 8.613-15.205 8.613-6.328 0-10.81-4.306-4.483-4.395-4.483-10.635 0-3.34 1.406-7.031 2.285-5.889 5.186-14.063 2.988-8.174 4.834-15.644 1.933-7.471 1.933-13.184 0-5.01-2.109-8.525-2.021-3.516-6.943-3.516-6.592 0-12.13 2.9-5.536 2.9-9.667 7.735-4.131 4.746-7.559 11.338l-12.217 48.955q-.615 2.46-2.812 4.218-2.11 1.758-4.746 1.758-2.197 0-3.78-1.406-1.582-1.406-1.582-3.691z" style="line-height:125%;-inkscape-font-specification:'cmmi10, Normal';text-align:start" filter="url(#a)"/>
</g>
<g transform="translate(-4.878 -163.17)" style="line-height:125%" font-weight="400" font-size="180" font-family="Arimo for Powerline" letter-spacing="0" word-spacing="0" fill="#09abf1">
<path d="M69.854 630.53v-18.017l87.45-36.739v13.536l-75.41 32.168 75.41 32.255v13.448l-87.45-36.65zM190.264 632.728q0 18.984 5.976 28.125 5.977 9.14 18.018 9.14 8.437 0 14.062-4.57 5.713-4.57 7.032-14.063l15.996 1.055q-1.846 13.711-11.69 21.885-9.844 8.174-24.96 8.174-19.952 0-30.499-12.569-10.459-12.656-10.459-36.826 0-23.994 10.547-36.562 10.547-12.657 30.234-12.657 14.59 0 24.17 7.559 9.668 7.559 12.13 20.83l-16.26 1.23q-1.23-7.91-6.24-12.568-5.01-4.658-14.239-4.658-12.568 0-18.193 8.35-5.625 8.35-5.625 28.125zM348.643 633.08q0 24.96-10.987 37.177-10.986 12.217-31.904 12.217-20.83 0-31.465-12.657-10.635-12.744-10.635-36.738 0-49.219 42.627-49.219 21.797 0 32.08 12.041 10.284 11.953 10.284 37.178zm-16.612 0q0-19.688-5.888-28.565-5.801-8.965-19.6-8.965-13.887 0-20.127 9.14-6.152 9.053-6.152 28.39 0 18.808 6.064 28.3 6.152 9.404 19.248 9.404 14.238 0 20.303-9.14 6.152-9.141 6.152-28.565zM428.447 665.423q-4.394 9.14-11.69 13.096-7.206 3.955-17.929 3.955-18.017 0-26.543-12.13-8.437-12.128-8.437-36.738 0-49.746 34.98-49.746 10.81 0 18.018 3.955 7.207 3.955 11.601 12.569h.176l-.176-10.635v-39.463h15.82v110.83q0 14.854.528 19.6h-15.117q-.264-1.406-.616-6.504-.263-5.098-.263-8.79h-.352zm-47.988-32.344q0 19.951 5.273 28.565 5.274 8.613 17.14 8.613 13.446 0 19.51-9.317 6.065-9.316 6.065-28.916 0-18.896-6.064-27.685-6.065-8.79-19.336-8.79-11.953 0-17.315 8.878-5.273 8.789-5.273 28.652zM480.742 636.507q0 16.347 6.768 25.224 6.767 8.877 19.775 8.877 10.283 0 16.436-4.13 6.24-4.131 8.437-10.46l13.887 3.956q-8.525 22.5-38.76 22.5-21.094 0-32.168-12.569-10.986-12.568-10.986-37.353 0-23.555 10.986-36.123 11.074-12.569 31.553-12.569 41.924 0 41.924 50.537v2.11h-67.852zm51.504-12.13q-1.318-15.028-7.646-21.884-6.329-6.943-18.194-6.943-11.513 0-18.281 7.734-6.68 7.647-7.207 21.094h51.328zM565.557 667.18v-13.447l75.41-32.255-75.41-32.168v-13.536l87.45 36.739v18.017l-87.45 36.65z" style="line-height:125%;-inkscape-font-specification:'Arimo for Powerline, Normal';text-align:start"/>
</g>
<g transform="translate(50)" style="line-height:125%" filter="url(#a)" font-weight="400" font-size="180" font-family="cmmi10" letter-spacing="0" word-spacing="0" fill="#fff">
<path d="M299.252 213.158q0-1.054.176-1.582l13.447-53.701q1.318-5.01 1.318-8.79 0-7.733-5.273-7.733-5.625 0-8.35 6.767-2.724 6.68-5.273 16.963 0 .527-.527.879-.528.264-.967.264h-2.11q-.615 0-1.054-.616-.44-.703-.44-1.23 1.934-7.822 3.692-13.272 1.845-5.449 5.625-9.931 3.867-4.483 9.58-4.483 6.24 0 10.898 3.604 4.746 3.603 5.889 9.492 4.57-5.976 10.37-9.492 5.89-3.604 12.833-3.604 5.713 0 10.02 3.34 4.394 3.34 4.394 9.053 0 4.57-2.9 7.998-2.813 3.34-7.559 3.34-2.9 0-4.922-1.758-1.933-1.846-1.933-4.746 0-3.955 2.9-7.031 2.9-3.164 6.68-3.164-2.9-2.373-7.032-2.373-7.734 0-13.447 5.537-5.713 5.449-10.283 13.886l-12.832 51.504q-.615 2.461-2.813 4.22-2.109 1.757-4.746 1.757-2.197 0-3.779-1.406-1.582-1.407-1.582-3.692zM380.639 203.314q0-3.34 1.406-7.03l14.59-38.76q2.373-6.592 2.373-10.811 0-5.361-3.955-5.361-7.12 0-11.778 7.382-4.57 7.295-6.767 16.348-.352 1.143-1.494 1.143h-2.11q-1.494 0-1.494-1.67v-.528q2.9-10.722 8.877-18.984 5.977-8.35 15.117-8.35 6.416 0 10.81 4.22 4.483 4.218 4.483 10.722 0 3.34-1.494 7.031l-14.59 38.672q-2.46 5.976-2.46 10.81 0 5.362 4.13 5.362 7.031 0 11.69-7.47 4.746-7.56 6.68-16.26.35-1.055 1.406-1.055h2.197q.703 0 1.142.527.44.44.44 1.055 0 .175-.176.527-2.46 10.195-8.613 18.809-6.065 8.613-15.117 8.613-6.328 0-10.81-4.307-4.483-4.394-4.483-10.635zm20.302-96.152q0-3.78 3.164-6.855 3.165-3.077 6.944-3.077 3.076 0 5.01 1.934 2.021 1.846 2.021 4.746 0 4.043-3.252 7.12-3.164 2.988-7.031 2.988-2.9 0-4.922-1.934-1.934-2.021-1.934-4.922zM464.662 218.256q-8.613 0-15.117-4.483-6.416-4.482-9.844-12.04-3.34-7.647-3.34-16.085 0-12.832 6.416-24.082 6.504-11.337 17.578-18.105 11.075-6.768 23.73-6.768 7.735 0 13.448 4.043 5.801 3.955 5.801 11.426 0 10.371-8.262 15.469-8.261 5.01-18.633 6.24-10.37 1.143-22.939 1.143h-.527q-2.9 10.722-2.9 18.369 0 7.998 3.69 14.062 3.692 6.065 11.25 6.065 10.723 0 20.567-4.922 9.932-4.922 16.172-13.623.527-.527 1.406-.527.88 0 1.758 1.054.967.967.967 1.846 0 .703-.352 1.055-6.592 9.228-17.754 14.59-11.162 5.273-23.115 5.273zm-10.635-47.9q10.46 0 19.336-.967 8.877-.967 16.084-4.834 7.207-3.955 7.207-12.217 0-3.34-1.845-5.8-1.846-2.55-4.834-3.868-2.9-1.318-6.065-1.318-7.646 0-13.799 4.13-6.064 4.131-10.02 10.811-3.954 6.592-6.064 14.062zM527.768 205.248q4.834 8.262 19.423 8.262 6.329 0 12.041-2.11 5.713-2.197 9.405-6.504 3.779-4.306 3.779-10.458 0-4.659-3.34-7.647-3.34-2.988-8.174-4.043l-9.756-1.934q-6.68-1.67-10.986-6.24-4.306-4.57-4.306-11.074 0-7.998 4.306-14.15 4.395-6.153 11.514-9.405t14.765-3.252q8.174 0 14.59 3.955 6.504 3.868 6.504 11.514 0 4.131-2.373 7.295-2.285 3.164-6.416 3.164-2.373 0-4.13-1.494-1.67-1.582-1.67-3.955 0-2.11 1.142-4.043 1.23-2.022 3.164-3.164 2.021-1.23 4.13-1.23-1.581-3.868-5.976-5.626-4.306-1.757-9.316-1.757-4.57 0-9.14 1.845-4.571 1.846-7.384 5.45-2.724 3.515-2.724 8.35 0 3.251 2.285 5.712 2.285 2.46 5.625 3.516l10.459 2.109q5.01 1.055 9.14 3.78 4.22 2.636 6.592 6.767 2.461 4.043 2.461 9.316 0 6.68-3.779 13.184-3.691 6.504-9.14 10.371-9.58 6.504-23.467 6.504-9.58 0-17.578-4.395-7.999-4.394-7.999-13.095 0-4.922 2.813-8.526 2.9-3.691 7.822-3.691 2.9 0 4.834 1.758 2.022 1.757 2.022 4.658 0 4.13-3.076 7.207-3.077 3.076-7.208 3.076h-.878z" style="line-height:125%;-inkscape-font-specification:'cmmi10, Normal';text-align:start"/>
</g>
<g class="logo-gear" filter="url(#a)" stroke-width="2.4" stroke="#fff" fill="none">
<path d="M317.006 169.61l5.607-.776 1.579.072 7.511 2.91v5.482l-7.511 2.91-1.579.073-5.607-.776-2.314 8.636 5.244 2.132 1.33.852 5.05 6.277-2.74 4.746-7.96-1.235-1.404-.726-4.468-3.476-6.322 6.322 3.476 4.468.726 1.404 1.235 7.96-4.746 2.74-6.277-5.05-.852-1.33-2.132-5.244-8.636 2.314.776 5.607-.073 1.579-2.91 7.512h-5.481l-2.91-7.512-.074-1.579.777-5.607-8.637-2.314-2.131 5.244-.853 1.33-6.276 5.05-4.747-2.74 1.236-7.96.726-1.404 3.476-4.468-6.323-6.322-4.468 3.476-1.403.726-7.96 1.235-2.741-4.746 5.05-6.277 1.33-.852 5.245-2.132-2.314-8.636-5.608.776-1.578-.073-7.512-2.91v-5.481l7.512-2.91 1.578-.073 5.608.776 2.314-8.637-5.245-2.131-1.33-.853-5.05-6.276 2.74-4.746 7.96 1.235 1.404.726 4.468 3.476 6.323-6.322-3.476-4.469-.726-1.403-1.236-7.96 4.747-2.741 6.276 5.05.853 1.33 2.131 5.245 8.637-2.314-.777-5.608.073-1.578 2.91-7.512h5.482l2.91 7.512.073 1.578-.776 5.608 8.636 2.314 2.132-5.245.852-1.33 6.277-5.05 4.746 2.74-1.235 7.96-.726 1.404-3.476 4.469 6.322 6.322 4.468-3.476 1.404-.726 7.96-1.235 2.74 4.746-5.05 6.276-1.33.853-5.244 2.131z"/>
<circle r="23.262" cy="174.801" cx="281.073"/>
</g>
</svg>
