  <svg
    id="logo-gear" filter="url(#a)" stroke-width="2.4" stroke="#fff" fill="none"
    xmlns="http://www.w3.org/2000/svg"
    width="20mm"
    height="20mm"
    viewBox="231 120 100 110">
    <path d="M317.006 169.61l5.607-.776 1.579.072 7.511 2.91v5.482l-7.511 2.91-1.579.073-5.607-.776-2.314 8.636 5.244 2.132 1.33.852 5.05 6.277-2.74 4.746-7.96-1.235-1.404-.726-4.468-3.476-6.322 6.322 3.476 4.468.726 1.404 1.235 7.96-4.746 2.74-6.277-5.05-.852-1.33-2.132-5.244-8.636 2.314.776 5.607-.073 1.579-2.91 7.512h-5.481l-2.91-7.512-.074-1.579.777-5.607-8.637-2.314-2.131 5.244-.853 1.33-6.276 5.05-4.747-2.74 1.236-7.96.726-1.404 3.476-4.468-6.323-6.322-4.468 3.476-1.403.726-7.96 1.235-2.741-4.746 5.05-6.277 1.33-.852 5.245-2.132-2.314-8.636-5.608.776-1.578-.073-7.512-2.91v-5.481l7.512-2.91 1.578-.073 5.608.776 2.314-8.637-5.245-2.131-1.33-.853-5.05-6.276 2.74-4.746 7.96 1.235 1.404.726 4.468 3.476 6.323-6.322-3.476-4.469-.726-1.403-1.236-7.96 4.747-2.741 6.276 5.05.853 1.33 2.131 5.245 8.637-2.314-.777-5.608.073-1.578 2.91-7.512h5.482l2.91 7.512.073 1.578-.776 5.608 8.636 2.314 2.132-5.245.852-1.33 6.277-5.05 4.746 2.74-1.235 7.96-.726 1.404-3.476 4.469 6.322 6.322 4.468-3.476 1.404-.726 7.96-1.235 2.74 4.746-5.05 6.276-1.33.853-5.244 2.131z"/>
    <circle r="23.262" cy="174.801" cx="281.073"/>
  </svg>